<?xml version="1.0" standalone="no"?>
<!DOCTYPE svg PUBLIC "-//W3C//DTD SVG 20010904//EN"
 "http://www.w3.org/TR/2001/REC-SVG-20010904/DTD/svg10.dtd">
<svg version="1.0" xmlns="http://www.w3.org/2000/svg"
 width="1000.000000pt" height="1000.000000pt" viewBox="0 0 1000.000000 1000.000000"
 preserveAspectRatio="xMidYMid meet">
<metadata>
Created by potrace 1.14, written by Peter Selinger 2001-2017
</metadata>
<g transform="translate(0.000000,1000.000000) scale(0.100000,-0.100000)"
fill="#000000" stroke="none">
<path d="M4877 9904 c-1 -1 -67 -5 -147 -9 -201 -10 -256 -15 -340 -30 -14 -2
-52 -7 -85 -10 -32 -4 -62 -8 -65 -10 -3 -2 -30 -6 -60 -10 -30 -4 -57 -8 -60
-10 -3 -2 -24 -6 -46 -9 -59 -9 -60 -10 -218 -47 -173 -40 -527 -150 -611
-189 -11 -5 -56 -23 -100 -41 -137 -54 -396 -177 -510 -243 -33 -19 -71 -41
-85 -48 -215 -118 -500 -321 -755 -537 -94 -80 -384 -365 -450 -441 -16 -20
-55 -65 -85 -100 -138 -161 -219 -270 -364 -490 -304 -459 -552 -1033 -666
-1540 -12 -52 -24 -104 -26 -115 -3 -11 -7 -31 -10 -45 -2 -14 -9 -49 -15 -79
-13 -65 -12 -59 -38 -241 -28 -204 -45 -458 -45 -665 1 -107 13 -400 18 -435
3 -14 7 -52 10 -85 4 -33 8 -71 10 -85 2 -14 6 -50 10 -80 4 -30 11 -77 16
-105 5 -27 12 -65 15 -82 14 -88 45 -232 55 -258 6 -17 11 -31 10 -33 -10 -17
125 -458 171 -559 10 -24 19 -47 19 -53 0 -6 4 -18 9 -28 5 -9 13 -28 19 -42
175 -444 492 -962 818 -1340 189 -219 420 -442 649 -628 97 -78 359 -272 369
-272 2 0 43 -26 92 -58 165 -108 447 -258 639 -341 55 -23 109 -46 120 -51 51
-24 230 -90 242 -90 7 0 21 -4 31 -9 79 -42 491 -151 707 -186 17 -3 53 -10
80 -15 51 -9 129 -20 175 -25 14 -2 57 -6 95 -10 39 -4 78 -9 87 -11 35 -6
327 -18 450 -17 115 0 345 10 423 17 105 11 169 18 187 21 11 3 46 7 77 11 31
3 65 8 76 10 11 2 58 11 105 20 728 132 1402 422 2010 864 58 42 117 86 130
97 14 11 59 49 100 82 138 114 184 155 340 311 129 129 253 265 365 401 61 76
203 270 271 374 115 173 190 306 297 520 81 162 218 481 232 542 3 10 14 45
26 78 41 115 118 391 143 515 3 14 7 36 10 50 5 22 16 80 31 165 2 17 7 39 9
50 2 12 7 48 11 80 4 33 9 68 11 78 17 98 38 444 37 632 -1 198 -15 423 -38
600 -1 11 -6 49 -10 85 -5 36 -9 67 -10 70 -11 49 -16 71 -19 100 -19 145
-106 486 -178 695 -153 447 -361 859 -627 1242 -53 76 -227 302 -273 354 -13
14 -48 55 -78 90 -147 171 -443 449 -655 615 -296 233 -662 454 -995 603 -41
18 -88 39 -105 47 -57 27 -288 114 -302 114 -7 0 -21 4 -31 10 -28 16 -226 76
-362 111 -97 24 -250 58 -285 64 -22 3 -47 7 -55 10 -8 2 -33 6 -54 10 -21 3
-48 7 -60 10 -20 4 -92 14 -146 20 -42 4 -143 16 -175 20 -81 10 -559 26 -568
19z"/>
</g>
</svg>
